<svg xmlns="http://www.w3.org/2000/svg" width="16" height="16" fill="none" viewBox="0 0 16 16"><g clip-path="url(#a)"><path fill="#000" d="M7.99 1a6.99 6.99 0 1 0 6.99 6.99C14.98 4.13 11.86 1 7.99 1Zm0 12.49C4.96 13.49 2.5 11.03 2.5 8c0-3.03 2.46-5.5 5.49-5.5 3.03 0 5.49 2.46 5.49 5.49 0 3.03-2.46 5.49-5.49 5.49v.01Zm1.06-2.76a.96.96 0 1 1-1.92 0 .96.96 0 0 1 1.92 0Zm.82-6.03c.73.74.75 2.08.03 2.83-.28.4-1.08.65-1.22.95-.06.4-.43.72-.84.6-.65-.19-.53-1.01-.23-1.46.38-.71 1.88-.96 1.15-1.91-.43-.57-1.77-.32-1.78.44 0 .98-1.49.98-1.5 0 .05-2.26 3-3 4.39-1.45Z"/></g><defs><clipPath id="a"><path fill="#fff" d="M0 0h16v16H0z"/></clipPath></defs></svg>