<svg xmlns="http://www.w3.org/2000/svg" width="24" height="24" fill="none" viewBox="0 0 24 24"><path fill="#000" d="M5.84 21.97c-.49 0-.98-.13-1.43-.39A2.81 2.81 0 0 1 3 19.13v-5.42C3 12.21 4.22 11 5.71 11h7.43c.55 0 1 .45 1 1s-.45 1-1 1H5.71c-.39 0-.71.32-.71.71v5.42c0 .44.29.65.42.73.13.07.46.22.84 0l12.28-7.13c.4-.22.44-.59.44-.74a.83.83 0 0 0-.43-.74L6.25 4.11c-.37-.21-.7-.06-.83.01-.13.07-.42.29-.42.73v2.57c0 .55-.45 1-1 1s-1-.45-1-1V4.85c0-1.02.53-1.94 1.41-2.46.88-.52 1.94-.52 2.83-.02l12.31 7.15c.9.5 1.44 1.43 1.44 2.47 0 1.04-.54 1.97-1.45 2.48L7.26 21.6c-.45.25-.93.38-1.41.38l-.01-.01Z"/></svg>