<svg xmlns="http://www.w3.org/2000/svg" width="16" height="16" fill="none" viewBox="0 0 16 16"><g clip-path="url(#a)"><path fill="#000" d="M14.76 7.16c-1.11-2.71-3.78-4.46-6.8-4.46s-5.69 1.75-6.8 4.46a2.24 2.24 0 0 0 0 1.65c1.11 2.71 3.78 4.46 6.8 4.46s5.69-1.75 6.8-4.46c.21-.52.21-1.12 0-1.65Zm-1.39 1.08c-.88 2.14-3 3.52-5.41 3.52s-4.54-1.38-5.41-3.52a.646.646 0 0 1 0-.51c.88-2.14 3-3.52 5.41-3.52s4.54 1.38 5.41 3.52c.07.16.07.35 0 .51Zm-2.65-.26c0 1.52-1.24 2.76-2.76 2.76-1.44 0-2.61-1.1-2.74-2.51 0-.09.07-.15.15-.12.19.06.39.09.6.09A2.2 2.2 0 0 0 8.17 6c0-.21-.03-.41-.09-.6-.03-.09.01-.16.12-.15 1.41.13 2.51 1.3 2.51 2.74l.01-.01Z"/></g><defs><clipPath id="a"><path fill="#fff" d="M0 0h16v16H0z"/></clipPath></defs></svg>