<svg xmlns="http://www.w3.org/2000/svg" width="24" height="24" fill="none" viewBox="0 0 24 24"><path fill="#000" d="m18.65 4.07-.26-.51a1 1 0 0 0-.89-.55h-4c-.38 0-.72.21-.89.55l-.22.45H6C3.79 4 2 5.79 2 8v8c0 2.21 1.79 4 4 4h12c2.21 0 4-1.79 4-4V8a3.98 3.98 0 0 0-3.35-3.93ZM20 16c0 1.1-.9 2-2 2H6c-1.1 0-2-.9-2-2V8c0-1.1.9-2 2-2h12c1.1 0 2 .9 2 2v8Zm-1-8c0 .55-.45 1-1 1s-1-.45-1-1 .45-1 1-1 1 .45 1 1Zm-7-.5c-2.49 0-4.5 2.01-4.5 4.5s2.01 4.5 4.5 4.5 4.5-2.01 4.5-4.5-2.01-4.5-4.5-4.5Zm0 7a2.5 2.5 0 0 1 0-5 2.5 2.5 0 0 1 0 5Z"/></svg>